<svg width="145" height="46" viewBox="0 0 145 46" fill="none" xmlns="http://www.w3.org/2000/svg">
<rect x="0.25" y="10.9531" width="7.15957" height="7.15957" rx="3.57979" fill="#080808" stroke="white" stroke-width="0.5"/>
<rect x="0.25" y="19.0381" width="7.15957" height="7.15957" rx="3.57979" fill="#080808" stroke="white" stroke-width="0.5"/>
<rect x="0.25" y="27.1234" width="7.15957" height="7.15957" rx="3.57979" fill="#080808" stroke="white" stroke-width="0.5"/>
<rect x="8.33521" y="2.86798" width="7.15957" height="7.15957" rx="3.57979" fill="#080808" stroke="white" stroke-width="0.5"/>
<rect x="8.33521" y="10.9531" width="7.15957" height="7.15957" rx="3.57979" fill="#080808" stroke="white" stroke-width="0.5"/>
<rect x="8.33521" y="19.0381" width="7.15957" height="7.15957" rx="3.57979" fill="#080808" stroke="white" stroke-width="0.5"/>
<rect x="8.33521" y="27.1234" width="7.15957" height="7.15957" rx="3.57979" fill="#080808" stroke="white" stroke-width="0.5"/>
<rect x="8.33521" y="35.2084" width="7.15957" height="7.15957" rx="3.57979" fill="#080808" stroke="white" stroke-width="0.5"/>
<rect x="16.4202" y="2.86798" width="7.15957" height="7.15957" rx="3.57979" fill="#080808" stroke="white" stroke-width="0.5"/>
<rect x="16.4202" y="10.9531" width="7.15957" height="7.15957" rx="3.57979" fill="#080808" stroke="white" stroke-width="0.5"/>
<rect x="16.4202" y="19.0381" width="7.15957" height="7.15957" rx="3.57979" fill="#080808" stroke="white" stroke-width="0.5"/>
<rect x="16.4202" y="27.1234" width="7.15957" height="7.15957" rx="3.57979" fill="#080808" stroke="white" stroke-width="0.5"/>
<rect x="16.4202" y="35.2084" width="7.15957" height="7.15957" rx="3.57979" fill="#080808" stroke="white" stroke-width="0.5"/>
<rect x="24.5054" y="2.86798" width="7.15957" height="7.15957" rx="3.57979" fill="#080808" stroke="white" stroke-width="0.5"/>
<rect x="24.5054" y="10.9531" width="7.15957" height="7.15957" rx="3.57979" fill="#080808" stroke="white" stroke-width="0.5"/>
<rect x="24.5054" y="19.0381" width="7.15957" height="7.15957" rx="3.57979" fill="#080808" stroke="white" stroke-width="0.5"/>
<rect x="24.5054" y="27.1234" width="7.15957" height="7.15957" rx="3.57979" fill="#080808" stroke="white" stroke-width="0.5"/>
<rect x="24.5054" y="35.2084" width="7.15957" height="7.15957" rx="3.57979" fill="#080808" stroke="white" stroke-width="0.5"/>
<rect x="32.5903" y="10.9531" width="7.15957" height="7.15957" rx="3.57979" fill="#080808" stroke="white" stroke-width="0.5"/>
<rect x="32.5903" y="19.0381" width="7.15957" height="7.15957" rx="3.57979" fill="#FF5D1F" stroke="white" stroke-width="0.5"/>
<rect x="32.5903" y="27.1234" width="7.15957" height="7.15957" rx="3.57979" fill="#080808" stroke="white" stroke-width="0.5"/>
<path d="M138.956 29.056V8.00399L134.586 9.03V5.306L141.008 2.45599H144.01V29.056H138.956Z" fill="#080808"/>
<path d="M121.934 29.512C119.476 29.512 117.374 28.942 115.626 27.802C113.878 26.6367 112.522 25.028 111.56 22.976C110.622 20.8987 110.154 18.492 110.154 15.756C110.154 13.0453 110.622 10.6513 111.56 8.574C112.522 6.49667 113.878 4.888 115.626 3.748C117.374 2.58267 119.476 2 121.934 2C124.391 2 126.494 2.58267 128.242 3.748C129.99 4.888 131.332 6.49667 132.27 8.574C133.232 10.6513 133.714 13.0453 133.714 15.756C133.714 18.492 133.232 20.8987 132.27 22.976C131.332 25.028 129.99 26.6367 128.242 27.802C126.494 28.942 124.391 29.512 121.934 29.512ZM121.934 25.142C123.935 25.142 125.569 24.306 126.836 22.634C128.102 20.962 128.736 18.6693 128.736 15.756C128.736 12.8427 128.102 10.55 126.836 8.878C125.569 7.206 123.935 6.37 121.934 6.37C119.907 6.37 118.26 7.206 116.994 8.878C115.752 10.55 115.132 12.8427 115.132 15.756C115.132 18.6693 115.752 20.962 116.994 22.634C118.26 24.306 119.907 25.142 121.934 25.142Z" fill="#080808"/>
<path d="M92.3947 20.088V16.022H108.317V20.088H92.3947Z" fill="#080808"/>
<path d="M67.6605 29.056L77.3885 2.45599H82.8605L92.5885 29.056H87.4205L85.2925 22.9H74.9185L72.7525 29.056H67.6605ZM76.2485 19.1H83.9625L80.0865 8.04199L76.2485 19.1Z" fill="#080808"/>
<path d="M45.9999 29.056V2.45599H55.0819C58.1979 2.45599 60.7565 3.01333 62.7579 4.128C64.7845 5.21733 66.2792 6.76266 67.2419 8.76399C68.2299 10.74 68.7239 13.0707 68.7239 15.756C68.7239 18.4413 68.2299 20.7847 67.2419 22.786C66.2792 24.762 64.7845 26.3073 62.7579 27.422C60.7565 28.5113 58.1979 29.056 55.0819 29.056H45.9999ZM50.8639 24.876H54.8539C57.0832 24.876 58.8439 24.5213 60.1359 23.812C61.4279 23.0773 62.3525 22.0387 62.9099 20.696C63.4672 19.328 63.7459 17.6813 63.7459 15.756C63.7459 13.856 63.4672 12.222 62.9099 10.854C62.3525 9.48599 61.4279 8.43466 60.1359 7.69999C58.8439 6.96533 57.0832 6.59799 54.8539 6.59799H50.8639V24.876Z" fill="#080808"/>
<path d="M112.162 43.056V35.616H113.872L114.052 37.011C114.322 36.531 114.687 36.151 115.147 35.871C115.617 35.581 116.167 35.436 116.797 35.436V37.461H116.257C115.837 37.461 115.462 37.526 115.132 37.656C114.802 37.786 114.542 38.011 114.352 38.331C114.172 38.651 114.082 39.096 114.082 39.666V43.056H112.162Z" fill="#FF5D1F"/>
<path d="M107.412 43.236C106.662 43.236 105.997 43.076 105.417 42.756C104.837 42.436 104.382 41.986 104.052 41.406C103.722 40.826 103.557 40.156 103.557 39.396C103.557 38.626 103.717 37.941 104.037 37.341C104.367 36.741 104.817 36.276 105.387 35.946C105.967 35.606 106.647 35.436 107.427 35.436C108.157 35.436 108.802 35.596 109.362 35.916C109.922 36.236 110.357 36.676 110.667 37.236C110.987 37.786 111.147 38.401 111.147 39.081C111.147 39.191 111.142 39.306 111.132 39.426C111.132 39.546 111.127 39.671 111.117 39.801H105.462C105.502 40.381 105.702 40.836 106.062 41.166C106.432 41.496 106.877 41.661 107.397 41.661C107.787 41.661 108.112 41.576 108.372 41.406C108.642 41.226 108.842 40.996 108.972 40.716H110.922C110.782 41.186 110.547 41.616 110.217 42.006C109.897 42.386 109.497 42.686 109.017 42.906C108.547 43.126 108.012 43.236 107.412 43.236ZM107.427 36.996C106.957 36.996 106.542 37.131 106.182 37.401C105.822 37.661 105.592 38.061 105.492 38.601H109.197C109.167 38.111 108.987 37.721 108.657 37.431C108.327 37.141 107.917 36.996 107.427 36.996Z" fill="#FF5D1F"/>
<path d="M96.4866 43.056V32.256H98.4066V38.631L101.047 35.616H103.327L100.282 39.006L103.822 43.056H101.422L98.4066 39.321V43.056H96.4866Z" fill="#FF5D1F"/>
<path d="M90.9943 43.236C90.3543 43.236 89.8293 43.136 89.4193 42.936C89.0093 42.726 88.7043 42.451 88.5043 42.111C88.3043 41.771 88.2043 41.396 88.2043 40.986C88.2043 40.296 88.4743 39.736 89.0143 39.306C89.5543 38.876 90.3643 38.661 91.4443 38.661H93.3343V38.481C93.3343 37.971 93.1893 37.596 92.8993 37.356C92.6093 37.116 92.2493 36.996 91.8193 36.996C91.4293 36.996 91.0893 37.091 90.7993 37.281C90.5093 37.461 90.3293 37.731 90.2593 38.091H88.3843C88.4343 37.551 88.6143 37.081 88.9243 36.681C89.2443 36.281 89.6543 35.976 90.1543 35.766C90.6543 35.546 91.2143 35.436 91.8343 35.436C92.8943 35.436 93.7293 35.701 94.3393 36.231C94.9493 36.761 95.2543 37.511 95.2543 38.481V43.056H93.6193L93.4393 41.856C93.2193 42.256 92.9093 42.586 92.5093 42.846C92.1193 43.106 91.6143 43.236 90.9943 43.236ZM91.4293 41.736C91.9793 41.736 92.4043 41.556 92.7043 41.196C93.0143 40.836 93.2093 40.391 93.2893 39.861H91.6543C91.1443 39.861 90.7793 39.956 90.5593 40.146C90.3393 40.326 90.2293 40.551 90.2293 40.821C90.2293 41.111 90.3393 41.336 90.5593 41.496C90.7793 41.656 91.0693 41.736 91.4293 41.736Z" fill="#FF5D1F"/>
<path d="M83.9315 43.056V34.101H80.8715V32.556H88.9265V34.101H85.8515V43.056H83.9315Z" fill="#FF5D1F"/>
<path d="M73.7174 43.236C72.9674 43.236 72.3024 43.076 71.7224 42.756C71.1424 42.436 70.6874 41.986 70.3574 41.406C70.0274 40.826 69.8624 40.156 69.8624 39.396C69.8624 38.626 70.0224 37.941 70.3424 37.341C70.6724 36.741 71.1224 36.276 71.6924 35.946C72.2724 35.606 72.9524 35.436 73.7324 35.436C74.4624 35.436 75.1074 35.596 75.6674 35.916C76.2274 36.236 76.6624 36.676 76.9724 37.236C77.2924 37.786 77.4524 38.401 77.4524 39.081C77.4524 39.191 77.4474 39.306 77.4374 39.426C77.4374 39.546 77.4324 39.671 77.4224 39.801H71.7674C71.8074 40.381 72.0074 40.836 72.3674 41.166C72.7374 41.496 73.1824 41.661 73.7024 41.661C74.0924 41.661 74.4174 41.576 74.6774 41.406C74.9474 41.226 75.1474 40.996 75.2774 40.716H77.2274C77.0874 41.186 76.8524 41.616 76.5224 42.006C76.2024 42.386 75.8024 42.686 75.3224 42.906C74.8524 43.126 74.3174 43.236 73.7174 43.236ZM73.7324 36.996C73.2624 36.996 72.8474 37.131 72.4874 37.401C72.1274 37.661 71.8974 38.061 71.7974 38.601H75.5024C75.4724 38.111 75.2924 37.721 74.9624 37.431C74.6324 37.141 74.2224 36.996 73.7324 36.996Z" fill="#FF5D1F"/>
<path d="M67.8943 43.056C67.1143 43.056 66.4893 42.866 66.0193 42.486C65.5493 42.106 65.3143 41.431 65.3143 40.461V37.221H64.0393V35.616H65.3143L65.5393 33.621H67.2343V35.616H69.2443V37.221H67.2343V40.476C67.2343 40.836 67.3093 41.086 67.4593 41.226C67.6193 41.356 67.8893 41.421 68.2693 41.421H69.1993V43.056H67.8943Z" fill="#FF5D1F"/>
<path d="M59.9456 43.236C59.2256 43.236 58.5756 43.071 57.9956 42.741C57.4256 42.411 56.9706 41.956 56.6306 41.376C56.3006 40.786 56.1356 40.106 56.1356 39.336C56.1356 38.566 56.3056 37.891 56.6456 37.311C56.9856 36.721 57.4406 36.261 58.0106 35.931C58.5906 35.601 59.2406 35.436 59.9606 35.436C60.6706 35.436 61.3106 35.601 61.8806 35.931C62.4606 36.261 62.9156 36.721 63.2456 37.311C63.5856 37.891 63.7556 38.566 63.7556 39.336C63.7556 40.106 63.5856 40.786 63.2456 41.376C62.9156 41.956 62.4606 42.411 61.8806 42.741C61.3006 43.071 60.6556 43.236 59.9456 43.236ZM59.9456 41.571C60.4456 41.571 60.8806 41.386 61.2506 41.016C61.6206 40.636 61.8056 40.076 61.8056 39.336C61.8056 38.596 61.6206 38.041 61.2506 37.671C60.8806 37.291 60.4506 37.101 59.9606 37.101C59.4506 37.101 59.0106 37.291 58.6406 37.671C58.2806 38.041 58.1006 38.596 58.1006 39.336C58.1006 40.076 58.2806 40.636 58.6406 41.016C59.0106 41.386 59.4456 41.571 59.9456 41.571Z" fill="#FF5D1F"/>
<path d="M46.2101 43.056V32.556H48.1301L53.0651 39.951V32.556H54.9851V43.056H53.0651L48.1301 35.676V43.056H46.2101Z" fill="#FF5D1F"/>
</svg>
