<svg width="119" height="20" viewBox="0 0 119 20" fill="none" xmlns="http://www.w3.org/2000/svg">
<path d="M0 0.5H3.2844C3.2844 1.56317 3.49716 2.59472 3.91683 3.56608C4.32209 4.50403 4.90216 5.34642 5.64096 6.06967C6.37977 6.79291 7.24029 7.36076 8.19842 7.75748C9.19067 8.16832 10.2444 8.37659 11.3305 8.37659H18.064V9.34169H9.03211C4.04383 9.34187 0 5.38321 0 0.5ZM13.6297 5.48307H18.0642V4.5185H15.9288C14.8324 4.5185 13.8014 4.10052 13.0261 3.34155C12.2508 2.58257 11.8239 1.57353 11.8239 0.5H8.53945C8.53945 1.8311 9.06897 3.08236 10.0304 4.02353C10.9918 4.9647 12.2702 5.48307 13.6297 5.48307ZM4.82442 3.19043C5.18005 4.01353 5.68914 4.75267 6.33781 5.38768C6.98647 6.02269 7.74152 6.52105 8.58233 6.86919C9.45252 7.22947 10.3771 7.4122 11.3306 7.4122H18.0642V6.44763H13.6297C12.8097 6.44763 12.014 6.29027 11.2648 5.98C10.5413 5.68044 9.89153 5.25157 9.33373 4.70552C8.77593 4.15946 8.33801 3.52338 8.03183 2.81514C7.71488 2.08153 7.55413 1.30256 7.55413 0.5H4.26973C4.26973 1.43331 4.45639 2.33857 4.82442 3.19043ZM0 19.1483H3.2844C3.2844 18.0851 3.49716 17.0536 3.91683 16.0822C4.32209 15.1443 4.90216 14.3019 5.64096 13.5786C6.37977 12.8554 7.24029 12.2876 8.19842 11.8908C9.19067 11.48 10.2444 11.2717 11.3305 11.2717H18.064V10.3066H9.03211C4.04383 10.3064 0 14.2651 0 19.1483ZM8.53945 19.1483H11.8239C11.8239 18.075 12.2508 17.0659 13.0261 16.3068C13.8014 15.5478 14.8324 15.1298 15.9288 15.1298H18.0642V14.1652H13.6297C12.2702 14.1652 10.9918 14.6836 10.0304 15.6248C9.06897 16.566 8.53945 17.8174 8.53945 19.1483ZM6.33781 14.2606C5.68914 14.8956 5.18005 15.6348 4.82442 16.4579C4.45639 17.3097 4.26973 18.2148 4.26973 19.1483H7.55413C7.55413 18.3456 7.71488 17.5666 8.03183 16.8332C8.33782 16.1249 8.77593 15.4889 9.33373 14.9428C9.89153 14.3967 10.5413 13.9679 11.2648 13.6683C12.0142 13.358 12.8099 13.2007 13.6297 13.2007H18.0642V12.2361H11.3306C10.3773 12.2361 9.45252 12.4188 8.58233 12.7791C7.74152 13.1273 6.98647 13.6256 6.33781 14.2606Z" fill="#0E0F11"/>
<path d="M65.3137 5.75529C61.2111 5.75529 58.3152 8.59023 58.3152 12.6359C58.3152 16.6815 61.2111 19.487 65.3137 19.487C69.4163 19.487 72.3423 16.6815 72.3423 12.6359C72.3423 8.59023 69.4464 5.75529 65.3137 5.75529ZM65.3137 16.7998C63.1115 16.7998 61.9652 15.0869 61.9652 12.6359C61.9652 10.1848 63.1115 8.4425 65.3137 8.4425C67.5159 8.4425 68.6922 10.1553 68.6922 12.6359C68.6922 15.1164 67.546 16.7998 65.3137 16.7998ZM95.23 11.0197V19.1528H91.6046V11.7295C91.6046 9.71841 90.9702 8.56504 89.1876 8.56504C87.4051 8.56504 86.378 9.98456 86.378 12.1732V19.153H82.7526V11.7297C82.7526 9.71859 82.088 8.56522 80.3356 8.56522C78.5832 8.56522 77.526 9.98474 77.526 12.1734V19.1531H73.9007V6.11021H77.526V8.23959C78.1907 6.76076 79.7012 5.75529 81.7253 5.75529C84.0817 5.75529 85.4111 6.84954 85.985 8.44661C86.7101 6.90866 88.3112 5.75529 90.4864 5.75529C94.0816 5.75529 95.2297 8.18046 95.2297 11.0197H95.23ZM49.8474 15.9167V10.783C49.8474 7.35236 47.5815 5.75529 44.1375 5.75529C40.6934 5.75529 38.5182 7.61851 38.065 10.2802L41.358 10.576C41.6601 9.30418 42.4757 8.41696 43.9864 8.41696C45.497 8.41696 46.3127 9.30418 46.3127 10.7534V11.0492L42.6571 11.759C39.636 12.3504 37.5816 13.3856 37.5816 15.8699C37.5816 18.1175 39.2735 19.4781 42.0528 19.4781C44.0165 19.4781 45.8291 18.6796 46.5845 17.1711C46.5867 17.1802 46.5889 17.1895 46.5911 17.1986C46.8655 18.3366 47.9056 19.139 49.1 19.139L51.5613 19.1385V18.0585C51.1657 17.964 50.8026 17.7654 50.5072 17.4762C50.0821 17.06 49.8474 16.5052 49.8474 15.9165V15.9167ZM46.3127 13.504C46.3127 15.6039 44.8626 17.0234 42.9593 17.0234C41.8112 17.0234 41.1164 16.4911 41.1164 15.6039C41.1164 14.3026 42.2342 14.0365 43.8052 13.711L46.3127 13.1787V13.504ZM109.686 17.4764C109.26 17.0602 109.026 16.5054 109.026 15.9167V10.783C109.026 7.35236 106.76 5.75529 103.316 5.75529C99.8718 5.75529 97.6966 7.61851 97.2434 10.2802L100.536 10.576C100.839 9.30418 101.654 8.41696 103.165 8.41696C104.675 8.41696 105.491 9.30418 105.491 10.7534V11.0492L101.836 11.759C98.8144 12.3504 96.76 13.3856 96.76 15.8699C96.76 18.1175 98.4519 19.4781 101.231 19.4781C103.195 19.4781 105.008 18.6796 105.763 17.1711C105.765 17.1802 105.767 17.1895 105.769 17.1986C106.044 18.3366 107.084 19.139 108.278 19.139L110.74 19.1385V18.0585C110.344 17.964 109.981 17.7654 109.686 17.4762V17.4764ZM105.491 13.504C105.491 15.6039 104.041 17.0234 102.138 17.0234C100.99 17.0234 100.295 16.4911 100.295 15.6039C100.295 14.3026 101.413 14.0365 102.984 13.711L105.491 13.1787V13.504ZM53.1198 0.5H56.7565V19.148H53.1198V0.5ZM29.5788 0.5H21.9958V19.148H25.7421V12.7143H29.5788C34.4428 12.7143 37.2223 10.4667 37.2223 6.59232C37.2223 2.71797 34.4428 0.5 29.5788 0.5ZM29.458 9.69787H25.7421V3.48712H29.458C32.2979 3.48712 33.5365 4.61102 33.5365 6.62215C33.5365 8.63327 32.2979 9.69787 29.458 9.69787Z" fill="#0E0F11"/>
<path d="M113.328 17.1329V19.1446H113.328H113.811V17.1329H114.685V16.7354H112.466V17.1329H113.328Z" fill="#0E0F11"/>
<path d="M115.354 17.248L115.949 19.1446H115.95H116.364L116.947 17.248H116.962V19.1446H117.45V16.7354H116.704L116.197 18.487H116.185L115.652 16.7354H114.89V19.1446H115.338V17.248H115.354Z" fill="#0E0F11"/>
</svg>
